<svg width="16" height="16" viewBox="0 0 16 16" fill="none" xmlns="http://www.w3.org/2000/svg">
<path d="M10.9213 5.51563H10.1885C10.0291 5.51563 9.87753 5.59219 9.78378 5.72344L7.32752 9.12969L6.21501 7.58594C6.12126 7.45625 5.97126 7.37813 5.81032 7.37813H5.07751C4.97595 7.37813 4.91657 7.49375 4.97595 7.57656L6.92283 10.2766C6.96882 10.3408 7.02945 10.3931 7.09969 10.4291C7.16994 10.4652 7.24777 10.4841 7.32674 10.4841C7.4057 10.4841 7.48354 10.4652 7.55378 10.4291C7.62402 10.3931 7.68465 10.3408 7.73064 10.2766L11.0213 5.71406C11.0822 5.63125 11.0228 5.51563 10.9213 5.51563Z" fill="#252525"/>
<path d="M8 1C4.13438 1 1 4.13438 1 8C1 11.8656 4.13438 15 8 15C11.8656 15 15 11.8656 15 8C15 4.13438 11.8656 1 8 1ZM8 13.8125C4.79063 13.8125 2.1875 11.2094 2.1875 8C2.1875 4.79063 4.79063 2.1875 8 2.1875C11.2094 2.1875 13.8125 4.79063 13.8125 8C13.8125 11.2094 11.2094 13.8125 8 13.8125Z" fill="#252525"/>
</svg>
