<svg width="34" height="34" viewBox="0 0 34 34" fill="none" xmlns="http://www.w3.org/2000/svg">
<rect x="0.75" y="0.75" width="32" height="32" rx="16" fill="#DC2626"/>
<path d="M32.75 23.3747L23.3747 32.75H10.1253L0.75 23.3747V10.1253L10.1253 0.75H23.3747L32.75 10.1253V23.3747Z" fill="#FECDD2" stroke="#DF3F40" stroke-width="1.5"/>
<path d="M23.5693 21.125C23.5693 18.9453 22.292 17.0625 20.4443 16.1855V12.9473C20.4443 12.6523 20.3408 12.3672 20.1494 12.1426L17.1729 8.61328C17.0479 8.46484 16.8701 8.39062 16.6943 8.39062C16.5186 8.39062 16.3408 8.46484 16.2158 8.61328L13.2393 12.1426C13.0492 12.3676 12.9447 12.6527 12.9443 12.9473V16.1855C11.0967 17.0625 9.81934 18.9453 9.81934 21.125H12.876C12.8311 21.2656 12.8076 21.418 12.8076 21.5898C12.8076 22.0215 12.9561 22.4434 13.2256 22.7773C13.4456 23.0505 13.737 23.2574 14.0674 23.375C14.5186 24.4297 15.5439 25.1094 16.6943 25.1094C17.2627 25.1094 17.8135 24.9414 18.2842 24.625C18.7451 24.3164 19.1025 23.8848 19.3193 23.375C19.6496 23.2581 19.941 23.0519 20.1611 22.7793C20.431 22.4423 20.5784 22.0236 20.5791 21.5918C20.5791 21.4277 20.5576 21.2715 20.5186 21.127L23.5693 21.125ZM16.6943 13.625C16.9397 13.63 17.1733 13.731 17.345 13.9062C17.5167 14.0815 17.6129 14.3171 17.6129 14.5625C17.6129 14.8079 17.5167 15.0435 17.345 15.2187C17.1733 15.394 16.9397 15.495 16.6943 15.5C16.449 15.495 16.2154 15.394 16.0437 15.2187C15.872 15.0435 15.7758 14.8079 15.7758 14.5625C15.7758 14.3171 15.872 14.0815 16.0437 13.9062C16.2154 13.731 16.449 13.63 16.6943 13.625ZM18.9619 22.0664C18.8604 22.125 18.7432 22.1484 18.6279 22.1328L18.2471 22.0859L18.1924 22.4648C18.0869 23.2051 17.4424 23.7637 16.6943 23.7637C15.9463 23.7637 15.3018 23.2051 15.1963 22.4648L15.1416 22.084L14.7607 22.1328C14.645 22.1466 14.5278 22.1226 14.4268 22.0645C14.2568 21.9668 14.1514 21.7852 14.1514 21.5879C14.1514 21.3809 14.2666 21.209 14.4365 21.123H18.9541C19.126 21.2109 19.2393 21.3828 19.2393 21.5879C19.2373 21.7871 19.1318 21.9707 18.9619 22.0664Z" fill="#DF3F40"/>
</svg>
