<svg width="16" height="16" viewBox="0 0 16 16" fill="none" xmlns="http://www.w3.org/2000/svg">
  <path d="M8 3C4.5 3 1.66667 5.16667 0.5 8C1.66667 10.8333 4.5 13 8 13C11.5 13 14.3333 10.8333 15.5 8C14.3333 5.16667 11.5 3 8 3ZM8 10.5C7.30761 10.5 6.64275 10.2267 6.14264 9.72656C5.64253 9.22645 5.36921 8.56159 5.36921 7.8692C5.36921 7.17681 5.64253 6.51195 6.14264 6.01184C6.64275 5.51173 7.30761 5.2384 8 5.2384C8.69239 5.2384 9.35725 5.51173 9.85736 6.01184C10.3575 6.51195 10.6308 7.17681 10.6308 7.8692C10.6308 8.56159 10.3575 9.22645 9.85736 9.72656C9.35725 10.2267 8.69239 10.5 8 10.5Z" fill="#344054"/>
</svg>

