<svg width="16" height="16" viewBox="0 0 16 16" fill="none" xmlns="http://www.w3.org/2000/svg">
  <path d="M1.5 8C2.66667 5.5 5.33333 3.75 8 3.75C8.78125 3.75 9.52604 3.88021 10.2188 4.12109L12.2188 2.12109L13.2789 3.18125L2.68125 13.7789L1.62109 12.7188L3.25911 11.0807C2.53967 10.5194 1.94653 9.80625 1.5 9C1.375 8.78125 1.375 8.5 1.5 8ZM12.75 6.25L14.5 8C14.625 8.21875 14.625 8.5 14.5 8.71875C13.3333 11.25 10.6667 13 8 13C6.88505 13 5.79974 12.7173 4.8125 12.1875L5.81445 11.1855C6.4724 11.493 7.22637 11.6304 7.98438 11.5195C8.74238 11.4086 9.46474 11.0532 10.041 10.5045C10.6173 9.95575 11.0201 9.23814 11.1947 8.44574C11.3693 7.65334 11.3079 6.82788 11.0195 6.07812L12.75 4.34766V6.25Z" fill="#98A2B3"/>
</svg>

