<svg width="14" height="14" viewBox="0 0 14 14" fill="none" xmlns="http://www.w3.org/2000/svg">
<path d="M6.38409 4.27045L6.38409 3.25982L11.4937 3.25982C11.5518 3.25982 11.4937 3.2047 11.4937 3.13732L11.4937 2.34107C11.4937 2.2737 11.5518 2.21857 11.4937 2.21857L6.38409 2.21857L6.38409 1.20795C6.38409 1.14057 6.33663 1.08545 6.27861 1.08545L3.4894 1.08545C3.43139 1.08545 3.38392 1.14057 3.38392 1.20795L3.38392 2.21857L2.21198 2.21857C2.15397 2.21857 2.21198 2.2737 2.21198 2.34107L2.21198 3.13732C2.21198 3.2047 2.15397 3.25982 2.21198 3.25982L3.38392 3.25982L3.38392 4.27045C3.38392 4.33782 3.43139 4.39295 3.4894 4.39295L6.27861 4.39295C6.33663 4.39295 6.38409 4.33782 6.38409 4.27045ZM4.28046 3.3517L4.28046 2.1267L5.48756 2.1267L5.48756 3.3517L4.28046 3.3517ZM6.74739 13.2129L6.74739 12.2023L11.4937 12.2023C11.5518 12.2023 11.4937 12.1472 11.4937 12.0798L11.4937 11.2836C11.4937 11.2162 11.5518 11.1611 11.4937 11.1611L6.74739 11.1611L6.74739 10.1504C6.74739 10.0831 6.69993 10.0279 6.64192 10.0279L4.11052 10.0279C4.05251 10.0279 4.00505 10.0831 4.00505 10.1504L4.00505 11.1611L2.21198 11.1611C2.15397 11.1611 2.21198 11.2162 2.21198 11.2836L2.21198 12.0798C2.21198 12.1472 2.15397 12.2023 2.21198 12.2023L4.00505 12.2023L4.00505 13.2129C4.00505 13.2803 4.05251 13.3354 4.11052 13.3354L6.64192 13.3354C6.69993 13.3354 6.74739 13.2803 6.74739 13.2129ZM4.90158 12.2942L4.90158 11.0692L5.85086 11.0692L5.85086 12.2942L4.90158 12.2942ZM10.2456 8.7417L10.2456 7.73107L11.4937 7.73107C11.5518 7.73107 11.4937 7.67595 11.4937 7.60857L11.4937 6.81232C11.4937 6.74495 11.5518 6.68982 11.4937 6.68982L10.2456 6.68982L10.2456 5.6792C10.2456 5.61182 10.1982 5.5567 10.1402 5.5567L7.50329 5.5567C7.44528 5.5567 7.39782 5.61182 7.39782 5.6792L7.39782 6.68982L2.21198 6.68982C2.15397 6.68982 2.21198 6.74495 2.21198 6.81232L2.21198 7.60857C2.21198 7.67595 2.15397 7.73107 2.21198 7.73107L7.39782 7.73107L7.39782 8.7417C7.39782 8.80907 7.44528 8.8642 7.50329 8.8642L10.1402 8.8642C10.1982 8.8642 10.2456 8.80907 10.2456 8.7417ZM8.3339 7.82295C8.32341 7.82295 8.31335 7.81811 8.30594 7.80949C8.29852 7.80088 8.29435 7.78919 8.29435 7.77701L8.29435 6.64389C8.29435 6.6317 8.29852 6.62002 8.30594 6.6114C8.31335 6.60279 8.32341 6.59795 8.3339 6.59795L9.30954 6.59795C9.32003 6.59795 9.33009 6.60279 9.33751 6.6114C9.34493 6.62002 9.3491 6.6317 9.3491 6.64389L9.3491 7.77701C9.3491 7.78919 9.34493 7.80088 9.33751 7.80949C9.33009 7.81811 9.32003 7.82295 9.30954 7.82295L8.3339 7.82295Z" fill="#252525"/>
</svg>
