<svg width="16" height="16" viewBox="0 0 16 16" fill="none" xmlns="http://www.w3.org/2000/svg">
<path d="M13.723 6.12656L9.87302 2.27656C9.77146 2.175 9.63865 2.125 9.50583 2.125C9.37302 2.125 9.24021 2.175 9.13865 2.27656L6.62146 4.79531C6.43083 4.77344 6.23865 4.76406 6.04646 4.76406C4.90271 4.76406 3.75896 5.14063 2.8199 5.89375C2.57927 6.08594 2.56052 6.44688 2.77771 6.66563L5.61677 9.50469L2.25115 12.8672C2.2099 12.9082 2.18445 12.9624 2.17927 13.0203L2.12615 13.6016C2.11208 13.7484 2.22927 13.8734 2.37458 13.8734C2.3824 13.8734 2.39021 13.8734 2.39802 13.8719L2.97927 13.8188C3.03708 13.8141 3.09177 13.7875 3.1324 13.7469L6.49802 10.3813L9.33708 13.2203C9.43865 13.3219 9.57146 13.3719 9.70427 13.3719C9.85583 13.3719 10.0058 13.3063 10.109 13.1781C10.9886 12.0797 11.3543 10.7047 11.2058 9.375L13.723 6.85781C13.9246 6.65781 13.9246 6.32969 13.723 6.12656Z" fill="black" fill-opacity="0.25"/>
</svg>
